<?xml version="1.0" standalone="no"?>
<!DOCTYPE svg PUBLIC "-//W3C//DTD SVG 20010904//EN"
 "http://www.w3.org/TR/2001/REC-SVG-20010904/DTD/svg10.dtd">
<svg version="1.0" xmlns="http://www.w3.org/2000/svg"
 width="512.000000pt" height="512.000000pt" viewBox="0 0 512.000000 512.000000"
 preserveAspectRatio="xMidYMid meet">

<g transform="translate(0.000000,512.000000) scale(0.100000,-0.100000)"
fill="#000000" stroke="none">
<path d="M400 4867 c-49 -16 -133 -102 -148 -153 -17 -59 -17 -1129 0 -1188
16 -55 99 -138 154 -154 96 -28 182 -4 247 68 24 26 49 66 55 88 8 26 12 127
12 298 l0 259 578 -580 c318 -319 593 -593 612 -607 49 -37 116 -51 182 -37
42 9 62 21 104 63 42 42 54 62 63 104 13 62 1 129 -31 176 -11 17 -282 293
-602 614 l-581 582 256 0 c302 0 324 5 392 80 24 26 49 66 55 88 26 86 8 162
-55 232 -74 82 -55 80 -697 79 -378 -1 -572 -5 -596 -12z"/>
<path d="M3520 4867 c-49 -16 -133 -102 -148 -153 -28 -94 -8 -169 63 -239 31
-32 65 -55 91 -63 28 -8 125 -12 295 -12 l254 0 -581 -582 c-320 -321 -591
-597 -602 -614 -32 -47 -44 -114 -31 -176 9 -42 21 -62 63 -104 42 -42 62 -54
104 -63 66 -14 133 0 182 37 19 14 294 288 612 607 l578 580 0 -259 c0 -174 4
-272 12 -300 16 -55 99 -138 154 -154 96 -28 182 -4 247 68 24 26 49 66 55 88
17 56 17 1128 0 1184 -6 22 -31 62 -55 88 -74 82 -55 80 -697 79 -378 -1 -572
-5 -596 -12z"/>
<path d="M1986 2259 c-21 -5 -52 -19 -70 -31 -17 -11 -293 -282 -613 -602
l-583 -581 0 254 c0 167 -4 267 -12 293 -6 22 -31 62 -55 88 -65 72 -151 96
-247 68 -55 -16 -138 -99 -154 -154 -17 -59 -17 -1129 0 -1188 16 -55 99 -138
154 -154 30 -9 190 -12 596 -12 635 0 617 -2 691 80 90 100 90 220 0 320 -68
76 -90 80 -397 80 l-261 0 515 513 c688 685 695 693 709 756 35 163 -112 309
-273 270z"/>
<path d="M3021 2258 c-33 -7 -58 -23 -96 -62 -64 -63 -82 -123 -64 -207 14
-63 21 -71 709 -756 l515 -513 -259 0 c-173 0 -272 -4 -300 -12 -86 -26 -166
-136 -166 -228 0 -92 80 -202 166 -228 30 -9 190 -12 596 -12 635 0 617 -2
691 80 24 26 49 66 55 88 17 56 17 1128 0 1184 -6 22 -31 62 -55 88 -65 72
-151 96 -247 68 -55 -16 -138 -99 -154 -154 -8 -28 -12 -125 -12 -295 l0 -253
-592 591 c-390 389 -605 597 -628 606 -51 21 -109 27 -159 15z"/>
</g>
</svg>
