<?xml version="1.0" standalone="no"?>
<!DOCTYPE svg PUBLIC "-//W3C//DTD SVG 20010904//EN"
 "http://www.w3.org/TR/2001/REC-SVG-20010904/DTD/svg10.dtd">
<svg version="1.0" xmlns="http://www.w3.org/2000/svg"
 width="1291.000000pt" height="1291.000000pt" viewBox="0 0 1291.000000 1291.000000"
 preserveAspectRatio="xMidYMid meet">
<metadata>
Created by potrace 1.14, written by Peter Selinger 2001-2017
</metadata>
<g transform="translate(0.000000,1291.000000) scale(0.100000,-0.100000)"
fill="#000000" stroke="none">
<path d="M6865 12899 c-63 -13 -139 -66 -185 -127 -25 -33 -50 -61 -56 -61 -7
-1 -13 -11 -16 -23 -19 -107 -13 -1386 7 -1418 4 -7 8 -25 7 -39 0 -20 9 -33
36 -51 19 -14 59 -46 87 -72 36 -32 72 -54 121 -71 38 -13 90 -34 117 -46 26
-12 62 -24 80 -28 17 -3 36 -12 40 -20 12 -19 34 -16 50 7 15 22 285 186 332
203 17 5 40 19 52 29 23 21 21 48 -3 48 -8 0 -14 6 -15 13 0 6 -2 69 -4 139
-2 70 -6 140 -9 155 -4 15 -8 50 -11 76 -6 57 -12 70 -28 60 -14 -9 -22 -10
-127 -17 -47 -4 -106 -8 -131 -11 l-46 -4 3 52 c1 29 5 165 8 303 4 139 9 262
11 275 3 13 7 60 9 104 8 118 27 248 41 265 6 9 10 40 9 75 -2 33 -3 68 -4 77
0 10 -12 31 -27 48 -22 23 -39 31 -78 35 -27 3 -81 11 -118 16 -92 15 -117 16
-152 8z"/>
<path d="M5958 12800 c-28 -8 -93 -45 -114 -65 -19 -16 -65 -52 -110 -84 -35
-25 -42 -36 -47 -76 -4 -26 -5 -70 -2 -99 3 -28 7 -193 9 -366 4 -335 13 -629
21 -670 3 -14 8 -41 11 -60 6 -44 44 -149 56 -156 5 -3 14 -1 21 4 8 7 34 -4
87 -39 88 -58 230 -129 259 -129 11 0 23 -4 26 -10 9 -14 28 -12 50 5 107 80
196 143 220 155 32 17 33 25 21 180 -2 19 1 41 7 47 5 7 6 20 3 29 -5 12 -14
14 -46 9 -33 -6 -178 -10 -216 -6 -6 1 -11 7 -11 14 -1 6 -6 48 -12 93 -18
131 -18 160 -1 155 35 -9 128 -7 170 4 49 13 47 8 35 100 -3 28 -7 98 -8 155
-1 58 -6 108 -12 112 -10 8 -183 1 -196 -8 -14 -8 -30 45 -34 116 -2 37 -5 72
-7 79 -2 9 27 13 112 15 144 4 153 7 146 55 -3 20 -9 63 -12 96 -3 33 -9 83
-13 112 -6 40 -5 53 6 57 7 3 13 11 13 17 0 15 -48 60 -69 64 -47 11 -223 66
-269 84 -58 23 -55 23 -94 11z"/>
<path d="M6183 11003 c-26 -21 -78 -131 -88 -188 -4 -22 -8 -92 -9 -155 -2
-115 11 -193 58 -331 8 -24 18 -64 21 -89 4 -25 8 -55 11 -67 4 -22 2 -22 -63
11 -38 18 -86 37 -108 41 -22 5 -47 10 -55 11 -8 2 -53 6 -100 9 -47 3 -92 7
-100 10 -8 2 -26 7 -40 9 -14 3 -47 12 -75 20 -27 7 -77 17 -110 20 -102 12
-119 15 -167 37 -43 20 -49 28 -92 119 -28 60 -47 114 -48 139 -1 23 -6 41
-13 41 -6 0 -29 -16 -51 -35 -21 -19 -48 -35 -60 -35 -26 0 -59 -58 -72 -127
-32 -178 6 -360 106 -512 23 -33 60 -96 83 -139 22 -42 51 -85 63 -94 36 -30
40 -34 63 -62 13 -14 33 -26 47 -26 18 0 25 -7 29 -27 3 -16 9 -36 12 -45 9
-23 -32 -12 -64 18 -22 21 -69 38 -87 34 -4 -1 -10 4 -15 11 -4 7 -34 15 -68
17 -43 3 -61 8 -61 18 0 24 -44 21 -120 -8 -47 -19 -103 -50 -120 -68 -3 -3
-45 -37 -94 -74 -77 -60 -141 -120 -208 -193 -44 -48 -90 -66 -198 -78 -151
-16 -180 -17 -180 -8 0 11 37 24 80 28 33 3 104 39 155 79 22 17 45 34 50 38
6 4 24 18 40 31 17 13 51 38 77 55 25 18 52 38 60 45 34 34 131 92 289 173 32
17 92 29 147 29 43 -1 54 13 28 34 -9 8 -46 11 -103 9 l-88 -3 -13 50 c-8 28
-21 83 -30 123 -26 109 -51 94 -46 -28 3 -81 5 -90 28 -124 16 -26 17 -29 1
-46 -10 -11 -30 -22 -45 -25 -26 -6 -201 -137 -208 -156 -2 -5 -8 -9 -14 -9
-6 0 -20 -9 -32 -20 -11 -10 -42 -35 -68 -54 -50 -37 -47 -38 -86 9 -33 40
-81 166 -74 198 1 4 -5 7 -13 7 -11 0 -15 11 -15 38 0 52 -14 72 -30 42 -16
-30 -1 -169 21 -196 5 -6 6 -14 2 -17 -3 -4 -1 -7 5 -7 7 0 11 -3 10 -7 -3
-10 43 -87 54 -91 5 -2 5 -9 1 -15 -4 -6 0 -8 10 -4 27 10 20 -19 -10 -49 -57
-54 -166 -84 -312 -86 -71 -1 -173 15 -196 32 -42 31 -75 10 -75 -47 0 -69 84
-293 110 -293 5 0 10 -6 10 -13 0 -21 119 -129 186 -170 73 -44 131 -58 249
-62 50 -2 91 -3 93 -4 8 -2 -27 -31 -38 -31 -6 0 -48 -37 -94 -82 -85 -86
-186 -225 -186 -259 0 -32 -17 -22 -79 44 -136 143 -319 327 -327 327 -4 0
-18 10 -29 23 -11 13 -49 45 -85 72 -35 27 -79 64 -98 82 -18 18 -40 33 -48
33 -8 0 -14 5 -14 10 0 6 -7 10 -15 10 -8 0 -15 -5 -15 -11 0 -10 56 -98 70
-109 3 -3 17 -21 30 -40 29 -42 23 -35 130 -148 47 -49 119 -126 160 -172 41
-45 81 -88 88 -96 7 -8 11 -14 9 -14 -3 0 22 -28 54 -61 32 -34 59 -64 59 -68
0 -4 13 -14 29 -24 l29 -17 -33 -92 c-47 -133 -69 -192 -72 -196 -3 -6 -63 32
-63 40 0 4 -7 8 -15 8 -8 0 -15 4 -15 8 0 5 -12 15 -27 23 -32 16 -106 70
-111 81 -2 5 -9 8 -16 8 -7 0 -21 8 -32 18 -10 9 -36 28 -56 42 -21 14 -38 28
-38 33 0 4 -4 7 -10 7 -9 0 -35 19 -65 48 -8 6 -16 12 -19 12 -3 0 -24 18 -48
40 -24 22 -48 40 -55 40 -6 0 -13 4 -15 8 -3 8 -95 72 -104 72 -3 0 -22 16
-42 36 -20 20 -55 48 -77 63 -22 14 -43 30 -47 36 -4 5 -10 6 -14 2 -4 -4 -12
1 -19 10 -7 10 -19 14 -29 10 -15 -6 -14 -10 6 -42 13 -19 29 -35 37 -35 8 0
12 -3 8 -6 -7 -7 38 -54 52 -54 6 0 14 -6 18 -14 4 -7 29 -29 54 -48 61 -47
82 -65 137 -115 25 -24 49 -43 54 -43 5 0 6 -4 3 -10 -3 -5 0 -10 8 -10 7 0
43 -27 78 -60 35 -33 68 -60 72 -60 5 0 5 -4 2 -10 -3 -5 -1 -10 5 -10 13 0
124 -90 209 -169 30 -28 59 -51 64 -51 4 0 5 -5 2 -10 -4 -6 -3 -10 2 -9 4 1
18 -2 31 -6 l22 -7 -26 -45 c-35 -60 -50 -78 -108 -135 -31 -31 -46 -53 -42
-63 8 -21 2 -19 -55 20 -28 19 -57 35 -65 35 -8 0 -14 3 -14 8 0 4 -14 13 -31
21 -28 12 -89 46 -184 104 -17 10 -55 30 -85 44 -30 15 -57 30 -60 33 -3 3
-27 16 -55 30 -27 14 -52 28 -53 33 -2 4 -10 7 -18 7 -8 0 -42 18 -74 40 -33
22 -72 45 -87 51 -57 21 -83 34 -83 42 0 5 -4 6 -8 3 -5 -3 -26 13 -47 34 -49
50 -69 53 -60 8 4 -18 8 -33 9 -33 0 0 12 -6 26 -14 14 -8 50 -28 80 -44 30
-17 57 -33 60 -37 5 -7 43 -22 49 -20 2 1 7 -3 10 -8 9 -14 121 -84 121 -75 0
4 6 0 12 -9 7 -8 60 -48 118 -88 58 -41 107 -76 110 -79 3 -3 25 -17 50 -30
25 -14 47 -27 50 -31 3 -4 13 -11 22 -16 9 -5 45 -36 80 -69 104 -100 202
-179 264 -215 148 -86 175 -104 205 -130 19 -16 40 -30 47 -30 6 0 12 -4 12
-9 0 -9 53 -34 75 -35 6 -1 16 -7 24 -14 8 -8 25 -12 38 -9 l23 4 -6 -86 c-4
-47 -8 -88 -10 -90 -2 -2 -22 8 -44 23 -22 14 -44 26 -50 26 -5 0 -10 5 -10
10 0 6 -6 10 -12 10 -7 0 -38 13 -68 29 -30 15 -84 42 -120 60 -36 18 -76 39
-90 47 -14 8 -33 18 -42 21 -10 3 -18 9 -18 14 0 5 -5 9 -10 9 -6 0 -29 9 -53
19 -79 35 -157 51 -157 31 0 -14 -16 -13 -32 3 -12 13 -155 64 -201 72 -12 3
-43 10 -70 16 -26 6 -54 8 -62 5 -9 -3 -15 0 -15 9 0 8 -14 22 -30 32 -17 9
-30 21 -30 25 0 5 -15 8 -32 7 -19 -1 -56 10 -87 26 -29 15 -59 28 -67 29 -8
1 -20 8 -26 14 -7 7 -15 12 -20 12 -8 0 -101 41 -223 100 -86 42 -152 69 -162
69 -3 -1 -9 5 -14 12 -10 17 -49 19 -49 3 0 -7 7 -20 16 -29 18 -17 232 -129
249 -130 6 0 12 -3 15 -6 8 -10 155 -79 168 -79 7 0 12 -4 12 -10 0 -5 3 -9 8
-8 11 4 72 -26 72 -34 0 -5 7 -8 15 -8 21 0 68 -47 60 -60 -3 -6 -13 -10 -22
-10 -17 0 -76 -31 -81 -42 -2 -5 -10 -8 -17 -8 -8 0 -20 -9 -28 -20 -8 -11
-16 -18 -19 -15 -12 12 -138 -142 -154 -188 -12 -31 -95 -208 -112 -237 -30
-50 -103 -210 -108 -237 -7 -38 -3 -37 -73 -18 -30 8 -57 13 -60 13 -3 -1 -24
1 -46 5 -22 4 -60 9 -85 13 -24 3 -48 8 -51 10 -10 6 -39 -25 -39 -42 0 -10
13 -14 43 -15 42 -1 52 -2 117 -15 19 -4 49 -8 65 -9 17 -1 43 -8 59 -14 16
-7 35 -10 43 -7 7 3 13 4 13 3 0 -1 -7 -27 -15 -57 -10 -34 -17 -119 -21 -225
-2 -93 -7 -180 -9 -191 -5 -23 -11 -23 -125 -6 -68 10 -219 8 -222 -3 -5 -16
53 -38 102 -41 25 -1 65 -5 90 -8 25 -4 68 -8 96 -9 l51 -1 6 -91 c7 -95 12
-129 22 -145 3 -5 12 -42 19 -82 44 -235 93 -402 152 -520 19 -37 34 -71 34
-75 0 -11 -38 -34 -64 -39 -11 -2 -22 -8 -24 -14 -2 -6 -8 -8 -12 -5 -5 3 -17
1 -27 -4 -26 -13 -116 -47 -198 -72 -38 -12 -76 -27 -84 -33 -8 -6 -21 -10
-30 -8 -11 1 -17 -5 -18 -17 -3 -33 83 -26 177 14 43 19 81 31 84 28 3 -4 6
-2 6 3 0 5 21 16 47 23 27 8 50 17 53 20 9 12 108 38 118 32 5 -3 19 -28 31
-55 23 -53 88 -147 150 -216 23 -25 54 -64 71 -87 l30 -41 -32 -10 c-18 -6
-58 -16 -88 -22 -30 -7 -83 -23 -118 -36 -58 -22 -81 -31 -157 -64 -16 -8 -34
-13 -38 -12 -4 1 -21 -5 -37 -13 -16 -9 -33 -15 -37 -15 -15 -1 -78 -20 -89
-27 -6 -5 -14 -16 -17 -26 -6 -17 -3 -18 30 -14 21 3 49 9 63 15 14 5 28 10
33 10 12 1 151 44 162 51 6 3 15 6 20 6 15 2 48 16 64 29 7 6 19 11 25 11 12
0 136 38 199 60 l37 13 47 -61 c26 -34 50 -64 53 -67 3 -3 30 -34 60 -69 30
-36 70 -78 88 -94 17 -16 32 -32 32 -36 0 -4 -19 -14 -42 -21 -24 -8 -56 -22
-73 -31 -74 -41 -95 -54 -95 -61 0 -4 -7 -5 -15 -2 -8 4 -15 2 -15 -2 0 -5
-25 -20 -55 -34 -30 -14 -55 -28 -55 -32 0 -5 -6 -8 -14 -8 -8 0 -16 -4 -18
-8 -1 -5 -68 -41 -148 -81 -170 -84 -191 -98 -171 -111 8 -5 25 -4 40 1 55 21
81 34 81 42 0 5 4 6 9 3 4 -3 30 5 57 18 27 13 67 32 89 42 22 10 45 25 52 34
7 8 13 12 13 8 0 -4 21 6 47 22 26 17 51 30 56 30 18 0 157 72 157 81 0 6 4 8
8 5 5 -3 23 4 40 15 18 10 37 19 43 19 5 0 19 9 31 20 24 22 33 19 93 -35 51
-45 212 -155 229 -155 6 0 17 -5 24 -12 8 -8 6 -16 -11 -31 -23 -21 -154 -107
-162 -107 -4 0 -15 -8 -67 -52 -11 -10 -29 -20 -39 -23 -11 -4 -19 -11 -19
-16 0 -5 -7 -9 -15 -9 -8 0 -15 -3 -15 -8 0 -4 -18 -18 -40 -32 -22 -14 -40
-28 -40 -32 0 -5 -5 -8 -10 -8 -6 0 -20 -9 -32 -19 -11 -11 -34 -27 -52 -35
-17 -9 -27 -16 -21 -16 13 0 -61 -50 -74 -50 -6 0 -11 -7 -11 -15 0 -9 -6 -12
-15 -9 -8 4 -15 2 -15 -4 0 -5 -22 -25 -50 -44 -27 -19 -47 -38 -43 -41 3 -4
0 -7 -8 -7 -21 0 -21 -38 0 -45 25 -8 53 2 166 56 39 19 72 37 73 41 2 5 8 8
13 8 13 0 133 81 137 92 2 4 10 8 18 8 8 0 14 5 14 10 0 6 7 10 15 10 8 0 15
4 15 9 0 5 8 11 18 15 9 3 37 21 62 40 25 19 50 35 57 35 6 1 13 5 15 9 5 12
102 77 111 74 4 -1 7 2 7 8 0 5 7 10 15 10 8 0 15 4 15 8 0 5 12 15 28 23 15
8 33 22 40 32 7 9 17 17 21 17 5 0 36 -21 69 -48 33 -26 87 -67 121 -91 33
-24 61 -47 61 -50 0 -3 -15 -13 -32 -20 -40 -18 -53 -30 -62 -58 -4 -12 -14
-24 -22 -27 -8 -3 -12 -10 -9 -16 3 -5 1 -10 -5 -10 -6 0 -18 -7 -26 -15 -9
-8 -12 -15 -7 -15 4 0 -4 -8 -20 -18 -15 -10 -26 -20 -24 -23 2 -2 -14 -20
-35 -40 -21 -20 -38 -35 -38 -32 0 2 -6 -2 -14 -9 -8 -7 -12 -16 -10 -19 2 -3
-8 -12 -21 -19 -13 -7 -22 -17 -19 -22 3 -4 1 -8 -5 -8 -6 0 -27 -18 -48 -40
-78 -84 -157 -160 -166 -160 -4 0 -5 -5 -2 -10 3 -6 2 -10 -4 -10 -5 0 -41
-30 -78 -67 -38 -38 -82 -79 -98 -93 -29 -24 -37 -42 -24 -55 6 -5 58 13 69
25 3 3 30 24 60 47 30 23 67 52 81 65 28 24 104 90 154 133 17 14 33 25 38 25
4 0 7 7 7 16 0 8 4 13 8 10 5 -3 21 7 38 21 16 14 46 39 67 56 21 18 51 43 66
57 83 76 121 108 121 102 0 -4 4 -2 8 4 4 5 42 34 85 63 46 32 80 63 83 76 6
23 6 23 62 7 67 -18 103 -17 142 3 86 45 78 137 -21 237 -27 28 -48 52 -46 54
2 2 49 -7 105 -21 127 -31 268 -35 301 -7 27 22 36 88 16 125 -17 32 -19 31
75 48 36 6 76 13 89 15 33 7 83 34 98 53 16 20 16 76 2 103 -10 19 -9 20 12
15 13 -4 30 -7 37 -7 13 0 29 -33 37 -80 5 -26 1 -32 -34 -50 -22 -11 -42 -24
-46 -30 -3 -5 -15 -10 -26 -10 -11 0 -17 -4 -14 -10 3 -5 0 -10 -8 -10 -8 0
-17 -6 -20 -13 -2 -7 -25 -22 -50 -35 -57 -28 -96 -66 -121 -115 -11 -20 -24
-37 -29 -37 -6 0 -8 -3 -5 -6 7 -6 -39 -54 -52 -54 -6 0 -10 -4 -10 -10 0 -5
-7 -10 -15 -10 -8 0 -15 -3 -15 -8 0 -4 -11 -20 -25 -35 -14 -15 -23 -27 -20
-27 4 0 0 -7 -9 -15 -8 -8 -20 -15 -26 -15 -6 0 -8 -4 -5 -10 3 -5 -1 -10 -10
-10 -9 0 -13 -4 -10 -10 3 -5 -2 -10 -11 -10 -10 0 -15 -3 -11 -6 3 -3 -9 -21
-26 -39 -46 -49 -57 -63 -57 -74 0 -6 -8 -15 -17 -20 -10 -6 -14 -11 -10 -11
4 0 -1 -10 -13 -22 -92 -104 -160 -184 -160 -192 0 -5 -13 -21 -29 -35 -27
-25 -97 -147 -166 -291 -9 -19 -23 -46 -31 -60 -7 -14 -14 -35 -14 -48 0 -20
3 -21 20 -12 11 6 20 20 20 30 0 11 5 20 11 20 5 0 7 5 4 10 -3 6 -2 10 3 10
5 0 21 18 36 41 33 50 458 479 474 479 7 0 12 4 12 8 0 4 13 15 29 25 16 10
54 40 83 67 29 28 74 70 101 95 26 25 52 45 58 45 5 0 7 5 4 10 -3 6 -1 10 5
10 15 0 40 25 40 40 0 6 4 9 9 6 4 -3 31 19 60 49 28 30 49 55 48 55 -2 0 32
36 75 80 43 45 83 78 87 75 5 -2 11 -16 14 -30 3 -19 1 -25 -9 -21 -9 3 -24
-12 -41 -42 -15 -26 -30 -49 -33 -52 -3 -3 -16 -25 -29 -50 -14 -25 -29 -48
-34 -51 -5 -3 -8 -9 -8 -13 1 -3 -21 -40 -49 -81 -28 -41 -47 -75 -43 -75 4 0
3 -4 -3 -8 -6 -4 -25 -31 -41 -59 -16 -29 -33 -50 -38 -45 -4 4 -5 2 -2 -4 6
-10 -53 -120 -71 -134 -4 -3 -14 -18 -22 -35 -8 -16 -28 -52 -45 -80 -17 -27
-38 -63 -46 -80 -20 -40 -43 -79 -49 -85 -3 -3 -25 -39 -49 -80 -24 -41 -51
-86 -59 -100 -9 -14 -14 -25 -11 -25 2 0 -6 -12 -19 -25 -39 -42 -83 -113 -78
-127 3 -7 -11 -46 -30 -87 -28 -58 -34 -82 -29 -106 4 -16 11 -30 16 -30 5 0
31 22 57 50 76 80 91 98 86 103 -2 2 2 10 11 17 8 7 15 19 15 28 0 8 3 12 7 9
3 -4 15 5 25 20 10 16 18 26 19 23 0 -3 2 -12 3 -20 2 -8 6 -49 10 -90 8 -82
9 -94 25 -190 6 -36 13 -85 16 -110 3 -25 8 -56 10 -70 2 -14 9 -61 15 -105 6
-44 18 -105 25 -135 15 -61 21 -100 30 -207 9 -93 0 -102 -103 -114 -42 -5
-104 -20 -137 -33 -32 -14 -62 -23 -66 -20 -4 2 -10 19 -14 37 -4 17 -20 69
-36 115 -16 46 -31 111 -34 145 -4 34 -15 93 -27 132 -11 38 -28 117 -38 175
-10 58 -30 137 -43 175 -14 39 -33 97 -42 129 -27 93 -91 223 -113 230 -11 4
-31 2 -46 -4 -40 -15 -72 -20 -171 -25 -49 -3 -111 -10 -136 -16 -26 -6 -53
-11 -62 -13 -23 -3 -47 -26 -47 -45 0 -9 -11 -32 -24 -51 -12 -19 -22 -44 -20
-54 1 -11 -4 -35 -12 -54 -19 -45 -18 -91 1 -99 19 -7 24 -2 30 27 2 12 6 24
8 26 2 2 17 -38 34 -89 28 -83 35 -108 47 -172 11 -54 37 -174 46 -205 17 -63
58 -234 64 -265 12 -69 17 -91 25 -110 22 -50 33 -88 47 -170 10 -59 36 -140
63 -194 16 -31 31 -69 35 -86 4 -16 21 -56 37 -90 28 -59 30 -60 116 -98 49
-21 117 -47 153 -58 77 -22 87 -20 230 51 97 48 233 100 271 103 40 3 48 33
47 169 -1 70 1 130 4 134 4 3 12 -20 19 -50 20 -90 35 -107 135 -148 49 -20
112 -39 139 -44 28 -4 55 -14 61 -23 19 -25 175 -20 239 8 27 12 76 28 108 36
82 19 99 34 130 111 36 89 44 143 42 289 -1 97 -5 128 -21 160 l-19 40 -110 1
c-60 1 -136 8 -168 16 l-58 14 -4 119 c-2 66 -6 138 -9 160 -3 22 -8 74 -11
115 -16 216 -20 240 -46 293 -39 76 -50 122 -60 256 -10 141 -19 167 -62 173
-22 3 -37 28 -17 28 6 0 17 6 25 12 7 7 27 24 45 38 18 14 45 36 59 50 15 14
39 26 53 28 25 2 27 0 33 -65 4 -38 9 -77 12 -88 6 -30 12 -66 17 -110 3 -22
8 -67 12 -100 4 -33 11 -69 17 -80 6 -12 12 -102 13 -215 2 -189 14 -355 24
-355 1 0 3 -25 5 -55 2 -30 8 -56 14 -58 6 -2 9 -8 5 -13 -9 -15 24 -10 40 6
8 9 38 18 66 21 68 6 127 44 149 95 9 21 19 39 22 39 3 0 7 -26 8 -58 1 -32 4
-70 6 -83 3 -13 8 -53 11 -89 3 -36 10 -83 14 -105 5 -22 10 -96 11 -165 2
-191 18 -254 70 -281 87 -45 213 -92 230 -86 4 1 15 -5 25 -15 11 -9 48 -26
83 -37 91 -30 185 -28 286 6 94 31 137 60 161 111 27 56 65 265 69 377 4 100
7 121 25 205 16 72 26 190 24 289 -1 62 2 91 10 90 25 -3 36 2 36 15 0 7 13
19 29 26 17 6 81 65 143 131 123 130 216 214 225 205 3 -3 -10 -29 -29 -58
-19 -29 -53 -84 -75 -123 -41 -70 -108 -154 -151 -188 -41 -34 -52 -48 -52
-70 0 -13 3 -17 8 -11 4 6 21 18 38 27 50 26 130 112 181 195 25 43 68 110 95
151 36 55 45 77 37 87 -6 7 -17 10 -25 7 -24 -9 -15 10 24 53 20 22 55 61 76
86 38 43 40 44 57 27 17 -17 18 -33 5 -77 -3 -9 -7 -67 -11 -127 -3 -61 -7
-124 -9 -140 -2 -17 -7 -55 -10 -86 -4 -31 -8 -66 -10 -76 -3 -11 -7 -44 -11
-74 -3 -30 -8 -70 -10 -89 -3 -19 -7 -64 -10 -100 -3 -36 -8 -76 -10 -90 -2
-14 -6 -64 -10 -112 -3 -49 -8 -98 -11 -110 -2 -13 -7 -52 -9 -88 -6 -85 -15
-172 -20 -187 -2 -7 11 -33 30 -58 19 -25 35 -49 35 -53 0 -15 184 -184 223
-205 33 -17 62 -21 162 -24 67 -1 137 2 156 7 19 6 66 13 104 16 39 4 74 10
78 14 5 4 11 41 13 81 5 78 16 126 62 299 16 58 27 113 25 122 -6 23 -72 53
-163 73 -41 9 -81 19 -89 21 -13 4 -12 74 5 209 2 22 7 121 9 220 5 214 4 205
62 420 25 94 46 175 46 182 0 6 6 9 14 6 12 -5 17 -17 14 -35 0 -5 3 -8 8 -8
5 0 12 -14 16 -30 4 -17 13 -36 20 -44 17 -16 64 -94 72 -118 3 -10 9 -18 14
-18 5 0 9 -7 9 -15 0 -8 3 -15 8 -15 7 0 25 -30 38 -62 6 -17 53 -26 55 -10 0
4 2 17 3 30 2 12 -1 22 -6 22 -5 0 -7 4 -4 9 10 15 -25 135 -72 249 -16 39
-28 72 -25 72 2 0 -4 12 -15 27 -16 24 -32 56 -36 73 -1 3 -7 15 -14 28 -7 12
-10 22 -7 22 3 0 0 12 -8 28 -27 50 -97 203 -97 211 0 4 -9 25 -19 47 -11 22
-23 52 -26 67 -4 15 -11 27 -17 27 -5 0 -6 5 -3 10 4 6 2 16 -3 23 -5 7 -20
45 -32 85 -12 41 -30 89 -41 108 -13 24 -16 40 -10 52 4 9 11 35 15 57 10 58
16 75 27 75 5 0 9 -9 9 -20 0 -11 4 -20 9 -20 5 0 14 -13 20 -28 7 -16 27 -46
46 -68 19 -21 37 -47 41 -56 3 -10 9 -18 14 -18 5 0 19 -18 31 -40 13 -22 27
-40 31 -40 5 0 7 -4 3 -10 -3 -5 6 -17 20 -26 14 -9 25 -21 25 -28 0 -6 11
-23 24 -38 14 -14 22 -29 19 -32 -4 -3 2 -6 12 -6 10 0 16 -3 12 -6 -5 -6 10
-28 46 -66 9 -10 14 -18 10 -18 -5 0 -3 -4 2 -8 6 -4 20 -19 31 -34 26 -33
113 -136 137 -160 9 -10 14 -18 10 -18 -3 0 4 -8 15 -19 12 -10 22 -26 22 -36
0 -12 6 -16 20 -12 15 4 20 0 20 -14 0 -10 5 -19 10 -19 6 0 10 -5 10 -11 0
-6 6 -16 13 -23 6 -7 21 -25 32 -39 21 -29 55 -36 55 -12 0 8 -9 35 -20 58
-11 24 -22 52 -24 63 -6 31 -81 178 -107 210 -5 6 -7 13 -4 16 3 3 -1 11 -10
18 -8 7 -15 19 -15 26 0 8 -3 14 -8 14 -4 0 -13 15 -21 32 -8 18 -17 35 -20
38 -4 3 -24 34 -45 70 -44 74 -88 143 -97 150 -13 12 -69 100 -69 109 0 6 -4
11 -10 11 -5 0 -10 7 -10 15 0 8 -4 15 -10 15 -5 0 -10 6 -10 14 0 8 -3 16 -7
18 -11 4 -53 87 -53 104 0 8 -4 14 -8 14 -7 0 -62 93 -62 105 0 29 124 -80
176 -154 9 -12 77 -84 152 -160 181 -183 273 -281 264 -282 -4 0 3 -4 16 -9
12 -5 22 -17 22 -25 0 -9 5 -13 10 -10 6 3 10 -1 10 -9 0 -9 7 -16 17 -16 9 0
14 -3 10 -6 -8 -8 106 -122 168 -168 28 -20 59 -44 70 -52 75 -57 132 -96 157
-106 15 -7 28 -15 28 -18 0 -3 16 -6 35 -7 44 -4 47 17 10 71 -13 20 -23 36
-21 36 4 0 -46 60 -81 96 -12 13 -20 24 -17 24 3 0 -1 6 -8 14 -34 35 -123
140 -123 146 0 3 -13 19 -28 35 -16 17 -36 42 -45 58 -9 15 -20 27 -24 27 -4
0 -8 7 -8 16 0 8 -4 12 -10 9 -5 -3 -10 0 -10 8 0 8 -11 26 -25 41 -13 14 -21
26 -17 26 4 0 2 4 -3 8 -6 4 -44 54 -85 112 -41 58 -78 110 -82 115 -4 6 -35
48 -69 94 -34 47 -70 94 -81 105 -11 12 -38 48 -61 81 -22 33 -44 62 -49 63
-4 2 -8 10 -8 17 0 7 -4 15 -9 17 -4 2 -12 13 -15 26 -6 16 -3 22 9 22 8 0 18
-7 21 -15 4 -8 12 -15 20 -15 8 0 14 -4 14 -10 0 -5 7 -10 16 -10 8 0 12 -4 9
-10 -3 -5 -3 -10 2 -10 4 0 29 -19 54 -43 25 -23 75 -64 110 -92 35 -27 73
-58 83 -67 11 -10 24 -18 28 -18 5 0 6 -5 2 -12 -4 -6 -3 -8 3 -5 5 4 37 -19
71 -51 33 -31 74 -67 89 -80 15 -13 46 -39 68 -58 21 -19 52 -40 67 -46 15 -7
28 -16 28 -20 0 -5 7 -8 15 -8 8 0 15 -5 15 -12 0 -6 3 -9 6 -6 3 4 13 -1 23
-10 10 -9 33 -29 52 -44 35 -28 87 -70 123 -101 11 -10 33 -26 49 -35 15 -9
27 -20 27 -24 0 -4 5 -8 10 -8 6 0 55 -31 108 -70 53 -38 109 -76 125 -82 15
-7 27 -16 27 -20 0 -5 6 -8 13 -8 6 -1 28 -14 47 -30 19 -17 39 -30 46 -30 6
0 25 -14 42 -30 18 -17 36 -30 42 -30 5 0 10 -3 10 -8 0 -4 9 -13 21 -20 20
-13 21 -12 14 20 -4 18 -12 38 -18 43 -7 6 -44 45 -84 86 -40 42 -75 74 -78
71 -3 -3 -5 -1 -5 4 0 14 -107 124 -120 124 -6 0 -8 5 -5 10 3 6 2 10 -2 10
-12 0 -102 80 -199 178 -46 45 -86 82 -89 82 -4 0 -29 22 -56 49 -27 27 -81
77 -120 112 -39 35 -87 81 -107 102 -151 155 -191 198 -222 236 -19 24 -58 66
-86 94 -53 54 -88 110 -81 130 2 7 15 0 31 -16 15 -15 32 -25 37 -22 5 4 9 -1
9 -9 0 -9 7 -16 15 -16 8 0 15 -4 15 -10 0 -5 6 -10 13 -10 7 0 23 -9 35 -20
12 -11 26 -20 32 -20 5 0 10 -4 10 -10 0 -5 7 -10 15 -10 8 0 15 -5 15 -10 0
-6 3 -9 8 -8 4 2 28 -12 54 -30 26 -17 49 -32 52 -32 6 0 162 -96 212 -131 23
-15 44 -25 48 -22 3 3 6 -1 6 -10 0 -9 7 -17 15 -17 8 0 15 -4 15 -10 0 -5 7
-10 15 -10 8 0 15 -4 15 -10 0 -5 6 -10 13 -10 7 0 22 -8 33 -18 10 -9 31 -23
47 -31 15 -8 27 -18 27 -23 0 -4 5 -8 11 -8 7 0 56 -27 109 -60 53 -33 102
-60 108 -60 6 0 12 -3 14 -7 2 -5 35 -23 73 -41 73 -35 85 -41 141 -73 19 -10
35 -18 37 -18 9 3 151 -64 155 -73 2 -5 9 -8 15 -8 7 0 26 -12 42 -26 49 -42
110 -63 118 -40 3 7 0 18 -7 27 -13 17 -127 106 -171 134 -16 10 -38 27 -49
37 -11 10 -23 18 -27 18 -4 0 -14 6 -21 13 -7 7 -34 28 -60 47 -27 18 -48 37
-48 41 0 4 -8 10 -17 13 -20 7 -71 48 -125 103 -21 21 -38 35 -38 31 0 -4 -16
9 -36 27 -20 19 -45 37 -55 40 -11 4 -30 16 -43 28 -12 12 -35 31 -50 41 -15
11 -36 27 -46 35 -10 9 -27 23 -38 32 -10 9 -47 35 -81 58 -34 24 -96 75 -137
114 -42 40 -83 76 -91 81 -9 5 -40 32 -69 60 -82 80 -156 148 -202 186 -84 69
-31 64 114 -11 52 -27 101 -49 108 -49 14 0 138 -59 146 -69 5 -7 95 -51 104
-51 2 0 48 -21 103 -46 99 -47 134 -62 143 -62 3 0 34 -15 70 -34 55 -29 170
-79 245 -108 11 -4 44 -18 74 -31 30 -13 56 -23 58 -21 2 1 18 -5 36 -15 17
-9 79 -34 137 -54 58 -20 145 -51 193 -68 48 -17 102 -33 119 -35 17 -2 33 -8
37 -13 8 -13 61 -26 61 -15 0 19 -185 130 -225 136 -7 1 -19 7 -26 13 -8 6
-16 11 -19 10 -8 -2 -145 67 -148 76 -2 4 -9 7 -16 7 -22 0 -190 90 -206 111
-10 13 -116 77 -162 98 -25 11 -75 40 -110 63 -76 51 -101 66 -150 90 -21 10
-38 22 -38 26 0 8 -1 8 -130 72 -47 23 -88 47 -92 54 -4 6 -8 7 -8 3 0 -5 -7
-2 -15 5 -31 29 -44 38 -52 38 -10 0 -55 35 -95 73 -16 15 -32 27 -34 27 -9 0
-74 69 -74 78 0 16 71 5 139 -21 74 -28 270 -90 346 -109 28 -7 53 -17 56 -22
4 -5 14 -6 22 -3 9 3 17 2 19 -2 3 -8 251 -83 265 -80 5 1 24 -5 43 -13 19 -9
69 -24 110 -33 41 -9 109 -28 150 -40 41 -13 109 -31 150 -40 41 -10 102 -25
135 -36 59 -18 99 -26 160 -33 17 -2 41 -8 55 -14 31 -13 62 -24 75 -27 6 -2
39 -12 74 -24 35 -11 67 -19 69 -16 9 9 -17 55 -30 55 -24 0 -171 59 -180 72
-4 7 -8 9 -8 4 0 -4 -10 -2 -22 6 -13 8 -48 23 -78 33 -30 9 -64 23 -75 29
-11 7 -47 23 -80 36 -33 13 -82 37 -109 52 -27 16 -51 26 -54 23 -3 -3 -12 1
-21 8 -14 12 -93 45 -126 54 -71 18 -101 28 -107 37 -4 6 -8 8 -8 4 0 -4 -21
4 -46 17 -26 14 -53 25 -60 25 -8 0 -14 5 -14 12 0 6 -3 9 -6 5 -3 -3 -36 10
-72 28 -54 28 -151 68 -172 70 -3 0 -31 13 -62 28 -31 15 -67 30 -79 32 -12 3
-27 9 -33 15 -5 5 -17 10 -27 10 -9 0 -28 9 -42 20 -14 11 -31 20 -37 20 -7 0
-25 9 -42 21 -16 12 -32 19 -35 16 -3 -3 -17 5 -32 19 -14 13 -38 30 -53 37
-16 6 -28 15 -28 19 0 5 -7 8 -15 8 -8 0 -15 6 -15 14 0 20 52 15 239 -24 84
-18 155 -29 158 -26 4 3 11 2 17 -3 6 -5 36 -12 66 -16 30 -4 60 -10 65 -13 6
-4 30 -7 55 -8 25 0 59 -4 75 -7 17 -3 57 -9 90 -12 33 -3 78 -7 100 -10 22
-2 67 -7 100 -10 33 -3 73 -8 90 -12 16 -3 43 -7 60 -9 16 -1 55 -10 85 -18
30 -9 68 -18 84 -21 16 -3 32 -8 36 -10 4 -2 27 -7 51 -10 24 -3 51 -7 59 -10
8 -2 39 -7 68 -10 30 -3 61 -9 70 -14 14 -7 84 -21 127 -26 6 -1 42 -5 80 -10
104 -13 119 -12 123 6 3 17 -14 27 -57 35 -14 3 -29 8 -35 12 -6 3 -15 7 -21
9 -5 1 -35 9 -65 18 -30 9 -66 18 -80 21 -14 2 -32 7 -40 11 -8 3 -25 7 -38 9
-13 1 -29 7 -35 12 -11 9 -135 41 -184 47 -11 2 -45 10 -75 18 -52 15 -128 31
-198 42 -37 6 -98 24 -115 33 -5 3 -22 7 -39 9 -16 2 -34 8 -41 13 -7 5 -14 8
-17 5 -2 -3 -20 0 -39 6 -19 6 -44 12 -56 14 -11 2 -29 6 -40 9 -10 3 -33 8
-52 11 -18 3 -45 12 -60 19 -33 17 -238 79 -271 82 -14 1 -32 3 -40 3 -16 2
-14 4 64 65 20 15 33 33 29 39 -3 5 -1 7 4 4 12 -7 56 52 72 96 6 16 11 42 11
58 0 43 12 36 44 -27 33 -66 69 -103 99 -105 99 -7 133 29 153 161 8 51 8 76
0 243 -4 103 -3 117 9 107 8 -7 15 -22 15 -33 0 -11 3 -18 6 -14 3 3 19 -8 34
-25 61 -66 105 -65 136 4 11 25 22 37 32 33 7 -3 16 -5 18 -5 3 0 2 -5 -2 -11
-4 -7 1 -7 15 1 13 6 47 13 76 15 29 1 58 6 64 9 6 4 65 9 130 11 66 1 125 6
130 10 6 3 84 8 174 11 89 2 191 7 227 10 36 4 82 7 103 7 36 -1 52 19 25 30
-55 20 -623 13 -658 -8 -3 -2 -42 -6 -86 -10 -77 -6 -168 -23 -207 -40 -15 -6
-17 -4 -11 21 3 16 8 115 10 219 6 336 16 421 55 457 11 9 19 25 19 36 0 11
21 80 46 153 25 74 50 148 55 165 5 17 20 51 32 75 13 24 31 70 41 101 16 52
77 166 95 178 4 3 12 13 17 22 5 9 26 36 47 60 52 58 118 161 168 260 38 75
58 154 61 240 1 22 5 26 27 23 14 -1 31 1 36 5 6 4 48 22 95 40 47 18 89 37
95 42 5 4 17 8 27 8 10 0 18 5 18 10 0 6 7 10 16 10 8 0 22 7 31 15 8 8 18 13
22 10 5 -2 16 4 26 15 25 28 7 47 -26 29 -13 -7 -29 -12 -35 -11 -6 1 -17 -4
-23 -12 -7 -8 -19 -12 -27 -9 -8 3 -14 0 -14 -6 0 -6 -8 -11 -18 -11 -10 0
-26 -6 -37 -14 -11 -7 -24 -15 -30 -16 -31 -8 -76 -25 -109 -42 -10 -5 -29
-12 -42 -14 -21 -4 -24 -1 -24 26 0 38 -24 86 -59 121 -14 14 -38 40 -53 58
l-27 34 32 39 c31 39 32 44 32 132 0 83 -3 96 -27 132 -42 63 -136 152 -174
166 -34 12 -45 41 -16 44 6 1 16 2 20 3 5 0 20 10 32 21 13 12 48 34 77 51 29
17 55 35 58 40 4 5 10 7 14 4 5 -2 16 4 26 15 10 11 24 20 30 20 7 0 15 9 18
20 5 18 2 20 -21 17 -29 -5 -95 -37 -100 -49 -2 -5 -8 -8 -13 -8 -19 0 -189
-114 -189 -127 0 -7 5 -13 10 -13 6 0 10 -4 10 -10 0 -5 -12 -10 -28 -10 -25
0 -29 5 -50 78 -61 202 -90 247 -189 287 -78 31 -100 33 -203 16 -136 -23
-203 -64 -352 -214 -77 -77 -102 -97 -117 -92 -17 5 -54 -1 -123 -21 -27 -8
-22 19 9 41 14 11 32 26 39 33 7 6 18 12 24 12 6 0 9 3 7 8 -3 4 10 18 29 32
18 14 34 31 34 39 0 8 3 12 6 9 3 -4 29 16 57 43 28 27 55 49 59 49 4 0 8 9 8
19 0 24 109 141 131 141 18 0 21 28 7 47 -8 10 -17 8 -38 -7 -16 -11 -31 -20
-35 -20 -6 0 -36 -22 -109 -80 -10 -8 -29 -25 -42 -37 -13 -13 -27 -23 -33
-23 -5 0 -11 -3 -13 -7 -1 -5 -28 -28 -58 -53 -73 -61 -107 -97 -132 -142 -12
-21 -26 -38 -31 -38 -16 0 -97 -91 -97 -108 1 -21 25 -54 33 -45 4 3 7 2 7 -3
0 -5 -15 -18 -34 -28 -53 -28 -95 -74 -127 -138 -26 -52 -58 -161 -62 -212 -1
-10 -17 -30 -37 -45 -19 -14 -44 -34 -54 -43 -11 -10 -26 -18 -33 -18 -7 0
-13 -4 -13 -8 0 -5 -16 -14 -35 -22 -19 -8 -35 -16 -35 -20 0 -3 -18 -16 -40
-30 -22 -14 -40 -28 -40 -32 0 -5 -5 -8 -10 -8 -10 0 -50 -32 -97 -77 -13 -13
-28 -23 -33 -23 -6 0 -10 -7 -10 -15 0 -9 -8 -19 -17 -22 -18 -7 -49 -33 -39
-33 3 0 -5 -10 -17 -23 -43 -45 -65 -75 -60 -81 4 -3 -1 -6 -10 -6 -10 0 -17
3 -17 8 0 4 -15 22 -32 41 -23 25 -28 36 -19 39 26 9 143 137 133 147 -3 3 -1
5 4 5 5 0 23 23 39 51 17 27 51 82 76 122 25 40 63 101 84 137 33 54 75 117
112 165 27 35 113 164 113 170 0 3 6 13 13 20 30 35 37 45 30 45 -4 0 -3 4 2
8 20 14 50 56 35 47 -8 -5 -3 4 11 18 14 15 38 50 54 79 15 29 44 85 64 123
21 39 55 99 77 135 22 36 47 76 55 90 8 14 16 27 19 30 21 21 -3 58 -26 42
-15 -10 -124 -188 -124 -201 0 -7 -4 -10 -9 -7 -5 3 -14 -7 -20 -22 -6 -15
-23 -37 -38 -47 -30 -23 -386 -375 -379 -375 3 0 -5 -11 -17 -23 -12 -13 -33
-39 -47 -57 -14 -19 -31 -39 -38 -47 -7 -7 -11 -13 -7 -13 4 0 0 -7 -7 -15
-28 -31 -39 -45 -34 -45 3 0 -9 -16 -27 -35 -45 -49 -59 -65 -53 -65 3 0 -5
-11 -17 -24 -26 -29 -32 -36 -76 -98 -19 -27 -39 -48 -44 -48 -6 0 -8 -3 -5
-6 3 -3 -8 -20 -24 -37 -16 -18 -39 -50 -51 -72 l-21 -40 -15 52 c-9 29 -23
61 -31 70 -8 10 -20 30 -27 44 -10 24 -9 28 13 39 21 12 38 49 50 107 1 7 11
25 22 40 27 39 110 206 116 233 5 23 102 210 108 210 5 0 7 4 3 9 -3 5 -1 12
5 16 5 3 20 27 33 53 13 26 36 72 52 102 16 30 29 57 30 60 3 14 59 116 67
121 5 3 9 9 8 13 -3 12 25 66 33 66 5 0 6 4 2 9 -3 5 0 15 7 23 7 7 14 20 16
28 2 8 7 17 11 20 8 5 18 29 19 44 0 5 5 12 10 15 5 3 18 21 28 40 10 18 24
41 29 50 47 75 64 109 62 129 -2 30 -17 27 -47 -8 -14 -16 -34 -40 -45 -52
-11 -13 -31 -39 -45 -58 -13 -19 -27 -37 -31 -40 -4 -3 -31 -53 -60 -110 -29
-58 -74 -138 -101 -178 -26 -40 -48 -75 -48 -79 0 -3 -11 -21 -26 -40 -14 -18
-23 -33 -20 -33 4 0 -2 -9 -11 -19 -33 -36 -44 -51 -38 -51 4 0 -1 -7 -9 -16
-9 -8 -30 -37 -48 -62 -17 -26 -36 -50 -41 -53 -5 -3 -8 -10 -8 -15 0 -5 -7
-18 -17 -30 -9 -11 -18 -27 -20 -35 -2 -8 -8 -15 -13 -17 -5 -2 -9 -9 -9 -15
0 -11 -77 -138 -99 -163 -5 -6 -19 -30 -30 -53 l-22 -42 -27 33 c-40 49 -86
91 -123 112 -19 11 -29 21 -21 23 6 3 12 9 12 15 0 5 9 22 19 36 10 15 19 30
20 35 0 4 8 23 16 43 8 20 15 40 15 45 0 5 5 9 10 9 6 0 9 3 8 8 -2 6 39 112
72 187 9 20 22 62 26 80 5 28 34 116 44 135 6 12 13 29 15 38 6 25 34 104 45
127 6 11 32 85 59 165 26 80 51 152 54 160 5 14 17 61 23 87 3 19 -27 33 -41
19 -13 -12 -67 -121 -67 -133 0 -4 -5 -14 -11 -22 -6 -7 -12 -18 -13 -25 -1
-6 -33 -76 -72 -156 -103 -214 -133 -279 -131 -286 0 -4 -4 -10 -9 -13 -10 -7
-43 -67 -41 -77 0 -4 -4 -10 -10 -14 -6 -3 -13 -16 -16 -28 -3 -20 -33 -80
-45 -92 -3 -3 -14 -21 -24 -40 -11 -19 -22 -37 -25 -40 -7 -6 -22 -33 -58
-100 -13 -25 -27 -48 -32 -53 -4 -4 -34 19 -67 51 -32 32 -71 66 -86 76 -26
17 -26 17 -11 64 9 26 21 81 27 122 9 58 21 89 51 135 50 78 85 146 85 167 0
9 5 20 11 23 7 5 5 15 -6 32 -18 27 -19 30 -31 118 -10 75 -10 70 0 130 10 69
16 86 27 80 5 -4 9 -3 10 2 0 4 2 23 4 42 2 18 8 45 13 60 5 14 14 44 20 66 6
22 20 72 31 110 24 82 26 98 9 93 -21 -6 -80 -133 -85 -183 -3 -25 -10 -45
-15 -45 -5 0 -8 -6 -6 -12 2 -11 -12 -64 -29 -108 -3 -8 -7 -21 -9 -28 -6 -30
-11 -18 -28 61 -10 45 -24 93 -31 107 -29 54 -57 128 -76 205 -11 44 -29 114
-39 155 -25 95 -25 117 0 162 22 41 11 61 -14 26 -16 -22 -16 -22 -16 10 0 43
-25 53 -54 21 -12 -13 -64 -79 -115 -147 -51 -67 -96 -124 -100 -127 -4 -2
-18 18 -30 45 -22 48 -81 117 -134 155 -15 11 -50 40 -76 65 -131 122 -166
152 -236 200 -27 18 -63 49 -80 68 -16 19 -52 57 -78 86 -26 28 -68 81 -93
119 -25 37 -49 67 -55 67 -34 0 35 -133 112 -214 23 -25 49 -55 57 -68 24 -34
43 -51 118 -103 91 -65 174 -144 168 -160 -3 -7 19 -44 48 -82 29 -38 64 -85
78 -103 14 -18 58 -76 98 -128 76 -100 78 -107 72 -212 -3 -62 -43 -134 -92
-168 -21 -15 -21 -14 -14 19 20 91 22 218 3 269 -2 8 -13 38 -23 65 -10 28
-17 53 -16 58 1 4 -3 7 -9 7 -5 0 -7 5 -4 10 3 6 1 10 -5 10 -6 0 -8 5 -5 10
3 6 1 10 -4 10 -6 0 -11 6 -11 13 0 7 -9 19 -20 27 -11 8 -20 18 -20 23 0 5
-14 22 -31 38 -17 16 -28 29 -24 29 4 0 -12 15 -34 34 -23 19 -59 53 -80 75
-21 22 -41 37 -45 34 -3 -4 -6 -2 -6 4 0 5 -18 18 -40 28 -22 10 -40 22 -40
27 0 5 -4 6 -10 3 -5 -3 -10 -2 -10 4 0 6 -13 17 -30 26 -27 14 -30 14 -30 0
0 -21 -13 -19 -35 5 -10 11 -15 20 -11 20 4 0 0 7 -8 16 -9 8 -14 19 -11 24 7
11 -25 6 -33 -6 -11 -15 -44 -13 -60 3 -25 25 -35 -7 -17 -57 17 -47 22 -295
6 -286 -9 6 -42 120 -67 234 -8 37 -18 76 -21 87 -7 22 -8 200 -1 256 11 89
67 165 115 157 11 -2 18 3 18 12 0 23 -74 25 -102 3z m-946 -580 c16 -40 41
-82 54 -94 37 -33 102 -59 166 -65 63 -6 158 -25 240 -48 29 -8 89 -17 135
-20 203 -13 344 -72 368 -156 10 -35 2 -37 -42 -10 -39 24 -58 25 -58 5 0 -16
-16 -20 -24 -6 -16 25 -94 50 -268 86 -10 2 -20 -1 -23 -6 -4 -5 -10 -7 -14
-4 -5 2 -46 6 -91 9 -88 4 -136 -6 -124 -26 5 -8 2 -9 -10 -5 -10 4 -24 7 -32
7 -9 0 -12 5 -9 10 3 6 0 10 -7 10 -13 0 -37 17 -104 74 -19 15 -34 26 -34 23
0 -6 -27 16 -79 63 -15 14 -36 40 -46 58 -11 17 -23 32 -28 32 -4 0 -5 5 -2
10 3 6 1 10 -5 10 -6 0 -8 5 -5 10 3 6 2 10 -3 10 -5 0 -9 12 -8 27 1 18 -5
29 -16 31 -13 3 -16 -4 -13 -38 2 -23 9 -48 16 -56 21 -26 22 -55 2 -52 -14 2
-19 -5 -21 -32 -4 -36 14 -141 28 -169 4 -9 19 -38 31 -66 13 -27 27 -51 32
-53 4 -2 7 -9 7 -16 0 -7 11 -25 25 -40 13 -14 21 -26 17 -26 -4 0 -2 -4 3 -8
6 -4 22 -23 37 -44 15 -20 34 -42 41 -50 9 -9 13 -37 13 -81 l-1 -69 -20 25
c-109 132 -145 192 -224 379 -43 102 -71 231 -65 301 4 48 30 125 50 148 8 8
14 19 14 24 0 4 10 16 22 27 l23 19 11 -43 c6 -24 25 -76 41 -115z m1620 -124
c29 -23 53 -46 53 -51 0 -5 6 -6 13 -2 6 4 9 3 4 -1 -4 -5 2 -18 12 -29 19
-20 61 -115 61 -137 0 -5 -11 -2 -24 8 -13 10 -23 21 -23 24 2 6 -38 60 -65
90 -10 11 -18 23 -18 28 0 5 -3 11 -7 13 -10 4 -73 85 -73 92 0 13 15 4 67
-35z m-1624 -81 c17 -17 22 -30 17 -47 -13 -53 -50 -20 -50 45 0 30 3 30 33 2z
m1943 -10 c-2 -13 -8 -41 -13 -63 -10 -44 -9 -75 2 -152 5 -34 4 -53 -2 -53
-13 0 -26 -34 -53 -137 -16 -61 -28 -86 -47 -100 -14 -10 -46 -34 -72 -54 -66
-51 -71 -53 -71 -32 0 10 21 41 46 68 67 72 101 151 96 220 0 10 4 25 9 31 7
9 7 20 -2 36 -7 12 -12 48 -13 79 0 54 3 60 44 103 25 26 48 53 53 61 12 23
28 18 23 -7z m-3279 -976 c7 -4 13 -23 15 -42 1 -19 15 -60 31 -90 31 -58 113
-149 135 -150 6 0 12 -3 12 -7 0 -5 18 -21 40 -37 22 -17 40 -35 40 -41 0 -7
6 -12 13 -12 11 -1 62 -9 106 -18 9 -1 34 -8 56 -13 22 -6 51 -13 65 -16 14
-3 53 -11 88 -18 67 -14 82 -28 30 -29 -173 -4 -229 -2 -277 7 -128 26 -281
160 -339 295 -30 72 -52 141 -52 167 0 13 19 16 37 4z m4913 -1239 c0 -65 26
-187 50 -234 13 -25 16 -37 7 -33 -7 2 -22 -5 -34 -16 -12 -11 -25 -20 -28
-20 -4 0 -26 -13 -50 -30 -24 -16 -46 -30 -50 -30 -4 0 -13 -6 -20 -12 -33
-29 -45 -38 -45 -33 0 3 -10 -3 -22 -15 -12 -11 -26 -20 -31 -20 -6 0 -34 -18
-63 -40 -29 -22 -58 -40 -64 -40 -6 0 -8 -4 -5 -10 3 -5 0 -10 -8 -10 -7 0
-23 -9 -35 -20 -12 -11 -28 -20 -36 -20 -7 0 -17 -8 -20 -17 -11 -28 -22 1
-25 64 -1 31 -4 60 -7 64 -8 13 8 38 21 33 23 -9 83 26 121 71 20 24 35 47 34
51 -1 4 2 10 7 13 18 12 81 107 96 143 17 40 80 110 110 121 9 3 17 13 17 20
0 14 57 67 72 67 4 0 8 -21 8 -47z m-4322 -332 c-5 -14 -14 -31 -19 -38 -6 -7
-8 -17 -4 -23 3 -5 2 -10 -4 -10 -6 0 -13 -11 -17 -25 -8 -31 -9 -31 -53 2
-65 49 -66 51 -40 74 13 11 41 36 62 55 l39 34 23 -22 c19 -18 21 -27 13 -47z
m-283 -152 c4 -13 12 -18 21 -15 9 3 12 1 9 -4 -3 -6 -1 -10 5 -10 12 0 80
-48 92 -65 4 -5 8 -6 8 -2 0 5 7 1 16 -7 14 -14 12 -23 -17 -96 -17 -44 -35
-80 -40 -80 -5 0 -9 4 -9 9 0 8 -65 40 -95 47 -5 1 -86 38 -178 83 -92 45
-172 81 -177 81 -6 0 -10 6 -10 14 0 11 23 14 123 13 114 -2 125 0 172 24 63
33 72 34 80 8z m4710 -26 c-4 -10 -23 -66 -42 -125 -30 -94 -38 -108 -57 -108
-12 0 -26 -4 -31 -9 -6 -5 -35 -14 -65 -20 -57 -12 -160 -58 -160 -71 0 -5 -9
-6 -21 -3 -12 3 -24 2 -28 -3 -8 -12 -67 -44 -80 -44 -6 0 -11 5 -11 11 0 12
25 39 35 39 4 0 22 15 40 33 19 19 48 45 65 58 51 40 72 58 132 115 31 30 61
54 67 54 6 0 11 4 11 9 0 5 8 11 18 15 27 9 88 46 77 47 -13 1 26 17 44 18 9
1 11 -5 6 -16z m-5135 -633 c12 -12 25 -18 31 -15 5 4 21 0 34 -9 13 -9 29
-16 36 -16 6 0 24 -9 40 -21 16 -11 29 -18 29 -15 0 7 123 -39 184 -70 55 -27
86 -30 104 -12 9 9 12 2 12 -35 0 -48 -7 -56 -28 -35 -7 7 -12 9 -12 5 0 -3
-12 -2 -26 4 -15 5 -45 12 -68 14 -22 3 -54 8 -71 12 -16 4 -41 7 -55 8 -14 1
-55 5 -91 9 -45 6 -73 4 -88 -3 -16 -9 -21 -9 -21 1 0 7 -16 51 -35 98 -19 46
-35 88 -35 92 0 16 40 8 60 -12z m4393 -177 c-9 -235 -7 -259 21 -343 31 -97
31 -109 -5 -141 -18 -16 -43 -29 -56 -29 -13 0 -23 -4 -23 -10 0 -5 -5 -10
-11 -10 -7 0 -9 84 -7 270 2 195 0 273 -8 278 -8 5 4 28 35 69 25 35 49 63 53
63 3 0 4 -66 1 -147z m-4349 -51 c2 -4 19 -9 38 -10 18 -1 60 -9 93 -18 33 -8
83 -17 110 -20 28 -2 71 -14 97 -25 45 -21 46 -23 47 -68 0 -25 5 -61 10 -80
6 -19 8 -38 5 -42 -3 -5 0 -18 6 -29 16 -30 40 -8 40 36 0 19 4 34 9 34 12 0
40 -115 31 -129 -4 -8 -35 -10 -91 -7 -46 3 -87 6 -91 6 -3 0 -9 15 -13 33 -9
40 -60 122 -103 164 -19 19 -63 43 -103 58 -114 41 -130 52 -122 86 5 19 28
26 37 11z m306 -480 c0 -4 16 -9 36 -10 20 -2 45 -7 55 -13 11 -5 19 -8 19 -6
0 2 26 -2 57 -8 52 -10 59 -14 67 -43 5 -18 6 -35 3 -38 -3 -4 -54 4 -114 17
-59 12 -119 23 -133 23 -23 0 -26 4 -27 43 -1 36 1 43 18 43 10 0 19 -4 19 -8z
m200 -247 c81 -9 88 -13 95 -47 4 -18 8 -40 11 -48 3 -13 -20 -15 -169 -13
-94 1 -174 2 -177 3 -3 0 -5 33 -5 73 l0 73 100 -18 c55 -10 120 -21 145 -23z
m4680 -291 c0 -3 -13 -44 -30 -91 -16 -46 -30 -102 -30 -123 0 -39 -25 -64
-36 -35 -4 8 -14 15 -24 15 -10 0 -32 14 -48 30 -17 17 -36 30 -44 30 -7 0 17
20 52 44 36 24 83 64 105 89 37 42 55 56 55 41z m-4975 -22 c28 -4 141 -7 252
-7 l203 0 9 -27 c9 -25 8 -26 -17 -24 -15 2 -36 0 -47 -4 -36 -14 -99 -29
-170 -41 -89 -15 -242 -48 -275 -60 -14 -5 -35 -10 -47 -12 -12 -2 -26 -6 -29
-10 -19 -19 -30 -3 -32 44 -1 29 -4 75 -7 104 l-5 53 58 -5 c31 -2 80 -8 107
-11z m515 -164 c0 -5 9 -21 20 -35 24 -31 26 -45 5 -36 -9 3 -25 -3 -35 -12
-11 -10 -20 -15 -20 -10 0 4 -6 3 -12 -2 -12 -10 -84 -37 -100 -38 -3 0 -10
-3 -14 -7 -4 -5 -13 -8 -21 -8 -7 0 -50 -17 -96 -38 -45 -21 -98 -45 -117 -52
-19 -8 -52 -25 -72 -38 -33 -22 -40 -23 -75 -12 -55 17 -122 50 -130 63 -4 7
-8 28 -8 49 -1 33 1 36 24 34 14 -2 39 0 56 5 16 4 44 10 60 13 124 21 171 31
255 55 19 5 82 22 140 36 58 15 109 33 115 40 10 15 25 11 25 -7z m108 -122
c10 -10 6 -17 -25 -38 -41 -26 -95 -50 -155 -66 -31 -8 -38 -8 -38 4 0 8 6 14
14 14 8 0 17 7 20 16 3 8 10 13 16 9 5 -3 18 3 30 15 11 11 26 20 33 20 7 0
21 11 31 25 20 26 47 27 74 1z m557 -1932 c8 -60 19 -124 24 -142 9 -30 8 -32
-14 -26 -20 5 -26 -2 -51 -52 -16 -32 -29 -63 -30 -69 -1 -5 -12 -32 -25 -60
-13 -27 -22 -53 -21 -57 1 -5 -3 -8 -9 -8 -5 0 -7 -4 -4 -10 3 -5 1 -10 -6
-10 -7 0 -10 -3 -6 -6 5 -6 1 -13 -29 -47 -5 -7 -20 -33 -33 -59 -17 -35 -29
-48 -44 -48 -12 -1 -49 -3 -82 -5 -113 -9 -157 -7 -166 6 -6 10 -13 10 -33 1
-14 -6 -26 -9 -26 -5 0 13 53 83 63 83 6 0 8 3 4 6 -3 4 -1 12 6 19 17 18 47
53 87 105 19 24 57 66 83 92 27 26 45 48 40 48 -4 0 -3 4 2 8 6 4 24 27 40 52
16 25 32 47 35 50 3 3 11 17 19 31 7 15 35 51 62 80 27 30 49 57 49 61 0 11
42 79 46 75 2 -2 11 -53 19 -113z m2462 -161 c10 -21 18 -40 18 -43 1 -3 22
-49 48 -103 26 -55 49 -104 50 -110 1 -7 4 -14 7 -17 11 -11 41 -70 35 -70 -3
0 1 -10 9 -22 17 -24 21 -42 8 -34 -5 3 -22 7 -38 10 -44 8 -127 27 -149 35
-19 6 -45 7 -135 3 -27 -2 -47 -12 -79 -42 -69 -64 -78 -46 -21 38 27 41 56
89 65 108 9 19 20 34 26 34 5 0 37 56 70 125 33 69 62 125 64 125 2 0 12 -17
22 -37z m-1466 -929 c23 -25 24 -30 23 -172 0 -81 -3 -235 -6 -342 -5 -166 -9
-204 -28 -252 -12 -32 -27 -58 -33 -58 -34 1 -45 31 -62 165 -7 54 -18 517
-16 633 1 16 11 27 34 37 46 20 60 18 88 -11z"/>
<path d="M10771 7038 c-25 -4 -63 -10 -85 -14 -22 -3 -43 -7 -46 -9 -3 -2 -21
-6 -40 -9 -19 -3 -50 -10 -69 -15 -18 -6 -36 -10 -40 -9 -9 2 -59 -12 -125
-34 -32 -11 -63 -21 -70 -23 -52 -11 -106 -29 -106 -35 0 -5 -8 -6 -19 -3 -20
5 -37 -22 -20 -32 5 -4 7 -11 4 -16 -8 -12 -5 -12 44 6 22 8 41 12 41 10 0 -3
11 0 26 5 14 6 38 12 55 15 16 3 65 17 107 31 42 15 82 27 87 28 6 1 35 10 65
19 30 9 71 19 90 22 19 3 42 8 51 11 9 2 34 7 55 9 56 6 94 18 94 30 1 15 -50
22 -99 13z"/>
<path d="M2320 6975 c0 -7 12 -16 28 -19 15 -4 72 -24 127 -44 55 -20 100 -34
100 -32 0 2 11 -2 24 -10 38 -20 87 -24 94 -7 8 20 -8 40 -35 44 -13 2 -51 12
-86 23 -35 12 -67 18 -72 15 -5 -3 -11 -1 -14 4 -6 9 -78 29 -133 36 -23 2
-33 -1 -33 -10z"/>
<path d="M10684 6477 c-16 -4 -47 -10 -69 -12 -22 -2 -76 -11 -120 -20 -44 -9
-96 -18 -115 -21 -19 -2 -51 -7 -70 -10 -19 -4 -53 -8 -75 -10 -22 -2 -76 -12
-120 -22 -73 -17 -80 -20 -83 -44 -2 -19 2 -28 17 -33 12 -3 25 -4 30 -1 5 3
26 8 47 12 22 3 66 14 99 23 33 10 87 22 120 26 64 8 84 11 130 22 17 4 35 7
40 8 6 0 26 4 45 8 19 4 46 9 60 11 14 2 43 8 65 13 22 5 84 8 138 8 82 -1 97
2 95 15 -2 8 -12 16 -23 18 -11 2 -27 6 -35 9 -23 10 -144 10 -176 0z"/>
<path d="M9732 5493 c-2 -18 -7 -44 -12 -57 -8 -23 -8 -23 68 -25 42 -1 79 -4
82 -6 4 -3 56 -5 116 -6 60 -1 119 -6 130 -10 21 -7 61 -12 239 -25 50 -4 99
-9 110 -11 44 -7 365 -15 389 -9 57 14 15 36 -79 41 -27 1 -70 5 -95 9 -25 3
-85 8 -135 11 -232 12 -309 19 -420 40 -44 9 -98 17 -120 19 -40 4 -197 41
-225 53 -36 15 -46 10 -48 -24z"/>
<path d="M2433 5377 c3 -9 -4 -13 -27 -12 -17 0 -53 -3 -81 -8 -27 -5 -59 -10
-70 -11 -11 -2 -27 -6 -35 -9 -8 -3 -26 -7 -40 -9 -14 -2 -25 -9 -25 -18 0
-19 56 -22 145 -9 36 6 93 12 128 13 41 2 69 9 79 19 19 19 8 39 -20 35 -13
-2 -21 2 -19 10 1 6 -7 12 -19 12 -13 0 -19 -5 -16 -13z"/>
<path d="M8595 2629 c-16 -5 -35 -16 -41 -24 -7 -9 -56 -39 -109 -68 -54 -29
-106 -63 -117 -77 -12 -17 -20 -48 -22 -95 -13 -207 -26 -298 -65 -436 -16
-57 -32 -120 -35 -139 -3 -19 -8 -46 -11 -60 -2 -14 -12 -59 -20 -100 -8 -41
-17 -85 -20 -97 -2 -13 -6 -60 -10 -106 -3 -45 -8 -94 -10 -107 -3 -14 -8 -78
-11 -142 l-5 -117 48 -49 c59 -60 98 -88 188 -137 39 -21 80 -44 91 -52 68
-44 172 -50 324 -18 14 3 48 8 75 12 84 9 94 20 110 121 3 19 18 59 34 90 16
32 41 87 55 124 15 37 51 110 81 162 29 52 56 104 60 115 9 28 27 27 20 -1 -2
-13 -14 -63 -25 -113 -53 -235 -60 -301 -45 -441 4 -38 7 -112 6 -165 0 -71 3
-100 13 -108 14 -12 125 -47 178 -56 15 -3 57 -7 95 -9 75 -5 107 -12 233 -49
74 -22 185 -34 263 -28 26 2 52 69 87 232 11 54 33 132 49 175 26 71 37 118
45 195 6 54 -49 85 -157 88 -71 2 -115 14 -187 51 -27 14 -55 20 -77 18 -33
-4 -34 -3 -27 26 3 17 15 54 26 81 11 28 26 66 33 85 8 19 31 72 53 118 l39
84 25 -44 c14 -24 35 -77 47 -118 11 -41 29 -81 38 -88 14 -10 46 -13 130 -9
108 4 114 5 141 33 16 16 39 54 50 85 11 31 34 85 51 120 16 35 41 116 55 179
14 63 34 151 44 195 22 94 21 172 -3 212 -21 37 -95 87 -157 107 -44 15 -84
16 -348 13 -32 0 -61 9 -100 31 -49 27 -66 31 -157 35 -92 4 -103 3 -103 -12
0 -10 -13 -44 -29 -77 -15 -32 -41 -92 -56 -131 -16 -40 -32 -73 -37 -73 -10
0 -10 3 1 58 6 30 4 58 -4 87 -8 24 -11 45 -9 48 14 14 -49 228 -74 251 -19
17 -109 41 -184 50 -27 3 -69 9 -95 12 -27 4 -61 7 -78 9 -35 2 -75 10 -165
32 -78 19 -154 23 -195 12z m232 -642 c7 -11 6 -208 -1 -242 -2 -11 -7 -53
-11 -92 -7 -80 -8 -83 -19 -133 -30 -129 -153 -280 -229 -280 l-28 0 5 105 c3
58 7 109 10 113 3 5 8 24 11 43 12 69 36 166 61 244 17 52 27 106 28 154 l1
73 55 22 c56 23 100 20 117 -7z"/>
<path d="M3237 2379 c-51 -12 -87 -32 -126 -68 -18 -17 -54 -37 -79 -45 -26
-7 -73 -25 -104 -40 -31 -14 -60 -26 -64 -26 -5 0 -57 -25 -116 -55 -59 -30
-110 -55 -113 -55 -4 0 -4 14 0 30 5 22 3 30 -8 30 -21 0 -75 -148 -92 -254
-8 -50 -17 -101 -19 -114 -5 -25 17 -97 59 -187 39 -86 61 -142 115 -300 26
-77 70 -192 98 -255 27 -63 77 -182 112 -265 108 -260 104 -254 188 -256 198
-4 397 3 421 16 14 7 58 41 98 74 39 34 76 61 82 61 13 0 72 33 98 54 10 8 29
23 42 34 45 35 43 112 -7 292 -12 41 -30 118 -41 170 -11 53 -38 145 -61 205
-23 61 -51 139 -62 175 -68 227 -82 268 -94 290 -7 14 -30 70 -50 124 -20 55
-51 121 -69 147 -18 26 -35 59 -39 73 -3 14 -11 26 -16 26 -6 0 -10 7 -10 15
0 26 -39 94 -59 105 -22 11 -31 11 -84 -1z m-63 -738 c41 -83 117 -280 161
-422 58 -183 53 -249 -20 -249 -25 0 -39 7 -54 28 -12 15 -25 32 -31 39 -5 7
-10 16 -10 20 0 4 -11 31 -25 58 -13 28 -25 56 -25 63 0 32 -84 263 -115 318
-19 34 -35 70 -35 78 0 24 57 133 72 138 29 10 50 -8 82 -71z"/>
<path d="M2065 2025 c-74 -20 -382 -179 -517 -267 -128 -84 -145 -107 -155
-199 -4 -38 1 -57 32 -118 20 -40 49 -107 64 -149 31 -85 71 -165 83 -170 4
-2 8 -9 8 -15 0 -13 2 -18 99 -217 59 -122 108 -216 217 -413 30 -53 54 -99
54 -101 0 -2 19 -35 42 -72 23 -38 66 -117 95 -175 64 -129 70 -135 119 -119
50 17 141 72 185 112 20 18 66 49 103 68 95 49 101 72 54 200 -20 57 -95 211
-107 220 -3 3 -11 14 -18 26 -10 19 -6 23 62 53 40 18 87 46 104 62 30 27 32
32 26 76 -4 27 -10 64 -15 84 -4 20 -8 78 -9 129 -1 52 -4 97 -6 100 -2 3 -6
75 -9 158 -8 220 -35 307 -121 387 -18 17 -73 77 -123 135 -187 218 -195 224
-267 205z m52 -720 c13 -9 29 -38 38 -68 8 -28 24 -83 35 -121 24 -83 25 -122
3 -134 -14 -8 -26 10 -78 113 -35 68 -72 137 -83 153 l-21 29 22 21 c25 26 54
28 84 7z"/>
<path d="M10785 1941 c-58 -15 -218 -128 -261 -185 -47 -62 -103 -189 -174
-401 -28 -82 -66 -179 -85 -215 -29 -56 -97 -243 -165 -452 -20 -60 -21 -201
-2 -264 15 -50 60 -112 91 -129 16 -8 55 -37 85 -64 48 -41 70 -52 153 -76 77
-22 108 -26 147 -20 28 3 67 9 86 11 63 8 126 34 152 62 51 56 183 284 170
296 -3 3 0 6 6 6 6 0 14 10 18 22 3 12 10 26 15 32 23 28 112 173 139 226 16
32 38 91 49 132 20 71 68 180 84 186 4 2 7 8 7 13 0 5 15 32 34 61 47 75 165
314 170 346 3 15 8 52 11 83 6 54 5 58 -24 88 -17 17 -37 31 -44 31 -8 0 -34
15 -58 32 -122 89 -171 109 -263 103 -74 -4 -79 -3 -154 36 -80 42 -135 54
-187 40z m39 -732 c64 -29 36 -176 -67 -361 -52 -92 -101 -138 -149 -138 -41
0 -41 -1 -40 77 0 40 39 177 89 314 21 57 28 66 44 62 14 -4 22 0 25 15 6 19
36 40 61 41 7 1 23 -4 37 -10z"/>
</g>
</svg>
