<?xml version="1.0" standalone="no"?>
<!DOCTYPE svg PUBLIC "-//W3C//DTD SVG 20010904//EN"
 "http://www.w3.org/TR/2001/REC-SVG-20010904/DTD/svg10.dtd">
<svg version="1.0" xmlns="http://www.w3.org/2000/svg"
 width="512.000000pt" height="512.000000pt" viewBox="0 0 512.000000 512.000000"
 preserveAspectRatio="xMidYMid meet">
<metadata>
Created by potrace 1.14, written by Peter Selinger 2001-2017
</metadata>
<g transform="translate(0.000000,512.000000) scale(0.100000,-0.100000)"
fill="#000000" stroke="none">
<path d="M1991 5103 c-26 -9 -65 -36 -91 -62 -42 -43 -51 -59 -88 -176 -38
-121 -149 -491 -157 -525 -2 -8 -26 -89 -53 -180 l-49 -165 -664 -5 c-613 -5
-667 -6 -692 -23 -46 -30 -60 -70 -54 -156 7 -98 12 -120 42 -187 84 -189 279
-333 475 -350 14 -2 151 -3 305 -4 l280 -1 0 -199 0 -198 -38 -38 c-153 -154
-108 -411 88 -501 56 -25 137 -35 193 -22 l32 7 0 -214 c0 -118 0 -217 0 -221
1 -4 -39 -15 -87 -24 -118 -23 -288 -80 -387 -130 -45 -23 -85 -45 -90 -49
-15 -15 -9 -60 10 -76 12 -9 15 -17 8 -20 -55 -24 -189 -128 -279 -219 -229
-230 -352 -483 -400 -821 -3 -22 -6 -137 -7 -255 -2 -234 2 -252 58 -277 32
-15 4389 -17 4428 -2 53 20 60 47 61 239 0 244 -10 355 -46 491 -85 325 -284
605 -567 798 -72 49 -81 58 -67 68 11 8 15 23 13 45 -3 29 -10 36 -88 75 -105
53 -276 111 -393 133 -48 9 -88 20 -87 24 0 4 0 103 0 221 l0 215 28 -8 c49
-14 139 -4 196 22 140 64 213 220 170 364 -18 58 -30 79 -78 131 l-41 45 -1
193 c-1 169 1 194 15 198 9 3 140 5 291 5 151 -1 291 2 310 5 258 46 461 261
489 516 9 86 0 126 -38 164 l-31 31 -670 3 -669 2 -9 33 c-10 33 -201 674
-253 849 -34 113 -72 168 -144 213 l-48 30 -541 2 c-469 1 -547 -1 -585 -14z"/>
</g>
</svg>
